<svg xmlns="http://www.w3.org/2000/svg" viewBox="0 0 322.21 305.87"><defs><style>.a,.b{fill:#d87e2e;}.a{opacity:0.59;}.c{fill:#ae4617;}.d{fill:#edaacd;}.e{fill:#fff;}.f{fill:#1d1d1b;}</style></defs><path class="a" d="M305.93,183.13a9.61,9.61,0,0,0-4.15-2.4c-7.46-2.26-15.44-1.93-23.07-3.24l-22.83-3.94c.2,2.6.31,5.23.31,7.92,0,17.92-4.63,34.08-12,45.49,14.14-.35,28.14-3,41.08-8.78,7.07-3.17,13.93-7.43,18.48-13.77C308,198.47,311,188.23,305.93,183.13Z"/><path class="a" d="M305.93,183.13a9.61,9.61,0,0,0-4.15-2.4c-7.46-2.26-15.44-1.93-23.07-3.24l-22.83-3.94c.2,2.6.31,5.23.31,7.92,0,17.92-4.63,34.08-12,45.49,14.14-.35,28.14-3,41.08-8.78,7.07-3.17,13.93-7.43,18.48-13.77C308,198.47,311,188.23,305.93,183.13Z"/><path class="a" d="M305.93,183.13a9.61,9.61,0,0,0-4.15-2.4c-7.46-2.26-15.44-1.93-23.07-3.24l-22.83-3.94c.2,2.6.31,5.23.31,7.92,0,17.92-4.63,34.08-12,45.49,14.14-.35,28.14-3,41.08-8.78,7.07-3.17,13.93-7.43,18.48-13.77C308,198.47,311,188.23,305.93,183.13Z"/><path class="a" d="M305.93,183.13a9.61,9.61,0,0,0-4.15-2.4c-7.46-2.26-15.44-1.93-23.07-3.24l-22.83-3.94c.2,2.6.31,5.23.31,7.92,0,17.92-4.63,34.08-12,45.49,14.14-.35,28.14-3,41.08-8.78,7.07-3.17,13.93-7.43,18.48-13.77C308,198.47,311,188.23,305.93,183.13Z"/><path class="a" d="M305.93,183.13a9.61,9.61,0,0,0-4.15-2.4c-7.46-2.26-15.44-1.93-23.07-3.24l-22.83-3.94c.2,2.6.31,5.23.31,7.92,0,17.92-4.63,34.08-12,45.49,14.14-.35,28.14-3,41.08-8.78,7.07-3.17,13.93-7.43,18.48-13.77C308,198.47,311,188.23,305.93,183.13Z"/><path class="a" d="M305.93,183.13a9.61,9.61,0,0,0-4.15-2.4c-7.46-2.26-15.44-1.93-23.07-3.24l-22.83-3.94c.2,2.6.31,5.23.31,7.92,0,17.92-4.63,34.08-12,45.49,14.14-.35,28.14-3,41.08-8.78,7.07-3.17,13.93-7.43,18.48-13.77C308,198.47,311,188.23,305.93,183.13Z"/><path class="a" d="M305.93,183.13a9.61,9.61,0,0,0-4.15-2.4c-7.46-2.26-15.44-1.93-23.07-3.24l-22.83-3.94c.2,2.6.31,5.23.31,7.92,0,17.92-4.63,34.08-12,45.49,14.14-.35,28.14-3,41.08-8.78,7.07-3.17,13.93-7.43,18.48-13.77C308,198.47,311,188.23,305.93,183.13Z"/><path class="a" d="M305.93,183.13a9.61,9.61,0,0,0-4.15-2.4c-7.46-2.26-15.44-1.93-23.07-3.24l-22.83-3.94c.2,2.6.31,5.23.31,7.92,0,17.92-4.63,34.08-12,45.49,14.14-.35,28.14-3,41.08-8.78,7.07-3.17,13.93-7.43,18.48-13.77C308,198.47,311,188.23,305.93,183.13Z"/><path class="b" d="M305.93,183.13a9.61,9.61,0,0,0-4.15-2.4c-7.46-2.26-15.44-1.93-23.07-3.24l-22.83-3.94c.2,2.6.31,5.23.31,7.92,0,17.92-4.63,34.08-12,45.49,14.14-.35,28.14-3,41.08-8.78,7.07-3.17,13.93-7.43,18.48-13.77C308,198.47,311,188.23,305.93,183.13Z"/><path class="b" d="M234.6,231.82a30,30,0,0,1,2.59-4.49,90.8,90.8,0,0,0,8.64-80c11.43-9.71,21.37-21.48,27.35-35.23s7.79-29.6,3.33-43.92c-1.38-4.44-3.53-8.92-7.43-11.45s-9.88-2.26-12.45,1.61a60.49,60.49,0,0,0-82.85-6.48l-28.95-20.6a6.8,6.8,0,0,0-3.6-1.6c-2.84-.07-4.46,3.19-5.2,5.93-8.92,33.14,6.05,68.27,26.37,95.93-26.72-16-63.39-13.32-87.47,6.45-3.18-11.88,2.39-24.09,6.3-35.75C86.1,87.65,88.48,72,85.8,56.89S75,27.31,62.09,19C50.75,11.63,35,9.43,22.56,15.42,11,21,14.22,41.17,21.23,49.17c8,9.14,22.48,12.76,26.53,24.23,3.41,9.66-2.4,19.82-5.54,29.57a58.59,58.59,0,0,0,13.4,57.49C40,201.34,49.06,250.66,78.3,283.24c6,6.67,13.12,12.87,21.84,14.89,7.16,1.65,16.31-1,18.2-8.06.71-2.65.28-5.45-.15-8.15l-8-50.08a114.59,114.59,0,0,0,65,1c4.26,12.93,8.58,26,15.66,37.62s17.28,21.87,30.13,26.39c7.69,2.7,18.59,1.7,20.95-6.11.81-2.7.34-5.61-.15-8.4l-7.38-42.42a17.1,17.1,0,0,1-.31-6.12A10.1,10.1,0,0,1,234.6,231.82Z"/><path class="b" d="M46.78,172.86c.65-1.77,1.39-3.51,2.17-5.23-.44-.41-.87-.83-1.28-1.27a202.79,202.79,0,0,0-32.82,57.09q-2.26,6.18-4.09,12.51c-1.42,5-2.63,10.19-1.59,15.25s4.95,9.87,10.09,10.35c5.93.56,10.75-4.4,14.76-8.79C38.36,248,42.9,243.44,47.56,239,41.14,217.31,39.05,193.93,46.78,172.86Z"/><path class="b" d="M192.64,36.75c-.21-.25-.42-.5-.64-.74-4.84-5.44-9.62-10.94-14.53-16.33-3.16-3.46-3.51-2.88-6.11.92a54,54,0,0,0-4.65,8.34A70.78,70.78,0,0,0,163,39.31c3.52,2.6,7.09,5.54,10.8,8A59.51,59.51,0,0,1,192.64,36.75Z"/><path class="b" d="M305.93,183.13a9.61,9.61,0,0,0-4.15-2.4c-7.46-2.26-15.44-1.93-23.07-3.24l-22.83-3.94c.2,2.6.31,5.23.31,7.92,0,17.92-4.63,34.08-12,45.49,14.14-.35,28.14-3,41.08-8.78,7.07-3.17,13.93-7.43,18.48-13.77C308,198.47,311,188.23,305.93,183.13Z"/><path class="b" d="M46.78,172.86c.65-1.77,1.39-3.51,2.17-5.23-.44-.41-.87-.83-1.28-1.27a202.79,202.79,0,0,0-32.82,57.09q-2.26,6.18-4.09,12.51c-1.42,5-2.63,10.19-1.59,15.25s4.95,9.87,10.09,10.35c5.93.56,10.75-4.4,14.76-8.79C38.36,248,42.9,243.44,47.56,239,41.14,217.31,39.05,193.93,46.78,172.86Z"/><path class="b" d="M192.64,36.75c-.21-.25-.42-.5-.64-.74-4.84-5.44-9.62-10.94-14.53-16.33-3.16-3.46-3.51-2.88-6.11.92a54,54,0,0,0-4.65,8.34A70.78,70.78,0,0,0,163,39.31c3.52,2.6,7.09,5.54,10.8,8A59.51,59.51,0,0,1,192.64,36.75Z"/><path class="c" d="M154.26,193.38c1-4.85-8.66-33.68,1.12-65.56A76.13,76.13,0,0,0,129,121.26c-11.71,26.74-3,70.5,8.15,76C145.41,201.27,153.24,198.4,154.26,193.38Z"/><path class="c" d="M117.74,191.36c.52-5.18-12.49-35-4.77-69.57A77.36,77.36,0,0,0,83.06,132.2c-3,27.38,8,60.79,18,64.71C109.7,200.27,117.21,196.59,117.74,191.36Z"/><path class="c" d="M112.59,247q-.95-5.88-1.88-11.76c-15.56,3.44-29.31-.35-31.69.05-2.57.44-4,3.77-2,7.27C79.63,247,98.91,250.46,112.59,247Z"/><path class="c" d="M148.26,300.5l1.27,0Z"/><path class="c" d="M116.11,268.94q-1-5.91-1.9-11.8c-14.65,2.66-27.26-.77-29.53-.38-2.57.43-4,3.76-2,7.26C85.16,268.17,102.64,271.53,116.11,268.94Z"/><path class="c" d="M235.46,246.44l-1.14-6.56a20.67,20.67,0,0,1-.44-5.19c-16.52,4.43-31.59.22-34.1.64s-4,3.77-2,7.27C200.54,247.2,221.75,250.83,235.46,246.44Z"/><path class="c" d="M239.44,269.31q-1-5.9-2.05-11.79c-13.61,1.92-25-1.13-27.14-.76-2.56.43-4,3.76-2,7.26C210.6,267.94,226.35,271.16,239.44,269.31Z"/><path class="c" d="M62.09,19C50.75,11.63,35,9.43,22.56,15.42,11,21,14.22,41.17,21.23,49.17c3.88,4.44,9.29,7.57,14.29,10.94l37.74-31A48.59,48.59,0,0,0,62.09,19Z"/><path class="c" d="M81.85,100.26c4.44-14,6.51-28.93,4-43.37-.14-.81-.31-1.61-.48-2.41L47.74,73.35l0,.05c2.8,7.94-.62,16.21-3.68,24.32Z"/><path class="c" d="M77.12,136.22c-.74.56-1.47,1.13-2.19,1.72-1.81-6.76-.78-13.63,1.16-20.44l-36.35,6.68a58.39,58.39,0,0,0,15.88,36.28c-.08.2-.14.4-.22.6Z"/><path class="c" d="M204.48,112.24c8.75-13.8,22.59-20.7,25.34-19s-9.35,9.75-18.09,23.55S200.9,145,198.15,143.26,195.73,126,204.48,112.24Z"/><path class="c" d="M223.15,121.53c2.81-10.41,8.82-16.86,12.4-15.89s-2.51,8.42-5.33,18.83-1.28,19.84-4.86,18.87S220.34,131.94,223.15,121.53Z"/><path class="d" d="M269.1,56.68a6.12,6.12,0,0,0-2.61-1.09,5.55,5.55,0,0,0-4.35,1.56,8.42,8.42,0,0,0-2.88,7.27,1.15,1.15,0,0,0,.51.92,1.26,1.26,0,0,0,.72,0l12.83-2.15a1,1,0,0,0,.56-.23c.26-.29.1-.73-.09-1.07a16,16,0,0,0-4-4.74Z"/><path class="d" d="M24.39,233.38c-2,5.7-6.33,10.1-10.6,8.33-3.56-1.47-3.37-9.82-2.35-13.5,1.61-5.81,6.46-9,10.1-7.75S26.38,227.68,24.39,233.38Z"/><ellipse class="d" cx="19.9" cy="250.35" rx="3.99" ry="5.46"/><path class="d" d="M23.89,250.35c0,3-1.79,6.76-4,6.76s-4-3.74-4-6.76,1.79-5.46,4-5.46S23.89,247.34,23.89,250.35Z"/><path class="d" d="M13.79,247.89c0,3-.79,6.53-3,6.53S7,252.14,7,249.12s.62-6.69,2.82-6.69S13.79,244.87,13.79,247.89Z"/><path class="d" d="M288.11,202.92c4.79-4,11.12-5.77,14.19-2.15,2.56,3-1,9.49-3.81,12.21-4.51,4.31-11.66,5.5-14.4,2.62S283.31,206.94,288.11,202.92Z"/><path class="d" d="M292.86,189.36c2.46-2.66,5.15-3.23,7.21-2.16s1.8,3.4.24,6-4.49,3.92-6.55,2.85A4.39,4.39,0,0,1,292.86,189.36Z"/><path class="d" d="M303,194c.67-3.15,1.89-8.28,4.37-7.89s3.36,5.44,2.69,8.58-3.14,5.2-5.63,4.81S302.31,197.18,303,194Z"/><path class="e" d="M245.32,61.49c1.78,2.69.89,10.18-5.86,16.41-3.84,3.53-13.89,7.12-17.79,1.5s-1.09-13,6.7-18.37S242.68,57.51,245.32,61.49Z"/><path class="f" d="M231.27,59.31a22,22,0,0,0-2.9,1.72c-7.79,5.41-10.61,12.76-6.7,18.37s14,2,17.79-1.5a24.07,24.07,0,0,0,3.18-3.57c0-.12,0-.24,0-.36A15.5,15.5,0,0,0,231.27,59.31Z"/></svg>