<?xml version="1.0" encoding="utf-8"?>
<!-- Generator: Adobe Illustrator 26.3.1, SVG Export Plug-In . SVG Version: 6.00 Build 0)  -->
<svg version="1.1" xmlns="http://www.w3.org/2000/svg" xmlns:xlink="http://www.w3.org/1999/xlink" x="0px" y="0px"
	 viewBox="0 0 157.7 150.13" style="enable-background:new 0 0 157.7 150.13;" xml:space="preserve">
<style type="text/css">
	.st0{opacity:0.59;fill:#D87E2E;}
	.st1{fill:#D87E2E;}
	.st2{display:none;}
	.st3{display:inline;}
	.st4{fill:#AE4617;}
	.st5{fill:#EDAACD;}
	.st6{fill:#FFFFFF;}
	.st7{fill:#EB5B1C;}
	.st8{fill:#1EA73E;}
	.st9{fill:#F7A418;}
	.st10{fill:#FFEA23;}
	.st11{fill:#B0CB0A;}
	.st12{fill:#1B5025;}
	.st13{fill:#65AF2F;}
	.st14{fill:#C49F04;}
	.st15{fill:#832511;}
	.st16{fill:#A07413;}
</style>
<g id="Слой_3">
</g>
<g id="Слой_1" class="st2">
	<g id="Слой_2" class="st3">
	</g>
</g>
<g id="Слой_5">
</g>
<g id="Слой_4">
</g>
<g id="Слой_6">
	<path class="st11" d="M139.41,82.36c8.12,29.56,1.18,55.49-60.9,55.49c-61.74,0-67.59-25.57-60.89-55.49c0.56-2.49,1.25-5,2.09-7.5
		c-1.02-0.67-1.76-1.78-1.83-3.17l-3.09-55.15c-0.17-3.03,2.95-5.16,5.7-3.91l38.92,17.67c5.86-2.21,12.23-3.46,19.09-3.46
		c7.31,0,13.89,1.25,19.79,3.44l38.91-17.66c2.76-1.25,5.87,0.88,5.7,3.91l-3.09,55.15c-0.1,1.73-1.2,3.04-2.63,3.58
		C138.03,77.64,138.76,80.02,139.41,82.36z"/>
	<path class="st13" d="M97.16,106.43c-1.95-2.87-6.17,1.55-9.47,1.78c-1.86,0.13-4.58-1.29-6.62-3.09
		c-0.75-0.65-1.48-1.17-2.19-1.31c0,2.11,0,4.25,0,6.34c2.32,2.81,6.11,3.3,8.36,3.3C91.48,113.45,99.26,109.53,97.16,106.43z"/>
	<path class="st13" d="M60.59,106.43c1.95-2.87,6.17,1.55,9.47,1.78c1.86,0.13,4.58-1.29,6.62-3.09c0.75-0.65,1.48-1.17,2.19-1.31
		c0,2.11,0,4.25,0,6.34c-2.32,2.81-6.11,3.3-8.36,3.3C66.26,113.45,58.48,109.53,60.59,106.43z"/>
	<path class="st13" d="M83.93,96.96H73.86c-2.54,0-3.79,3.09-1.96,4.85l5.03,4.86c1.09,1.06,2.83,1.06,3.92,0l5.03-4.86
		C87.71,100.04,86.47,96.96,83.93,96.96z"/>
	<path class="st13" d="M87.69,91.18c0,6.79,8.19,0.29,17.21,0.23c9.02,0.06,17.21,6.56,17.21-0.23c0-4.97-8.19-6.63-17.21-6.64
		C95.88,84.54,87.69,86.21,87.69,91.18z"/>
	<path class="st13" d="M70.01,91.18c0,6.79-8.19,0.29-17.21,0.23c-9.02,0.06-17.21,6.56-17.21-0.23c0-4.97,8.19-6.63,17.21-6.64
		C61.82,84.54,70.01,86.21,70.01,91.18z"/>
</g>
</svg>
