<svg xmlns="http://www.w3.org/2000/svg" viewBox="0 0 157.7 147.7"><defs><style>.a{fill:#eb5b1c;}.b{fill:#832511;}</style></defs><path class="a" d="M139.92,81.15c8.12,29.56,1.17,55.49-60.9,55.49-61.75,0-67.59-25.57-60.89-55.49a75,75,0,0,1,2.09-7.5,4,4,0,0,1-1.83-3.17L15.3,15.33A4.05,4.05,0,0,1,21,11.42L59.93,29.1A53.7,53.7,0,0,1,79,25.64a56.28,56.28,0,0,1,19.79,3.45l38.91-17.67a4,4,0,0,1,5.7,3.91l-3.09,55.15a4,4,0,0,1-2.62,3.58C138.54,76.43,139.27,78.81,139.92,81.15Z"/><path class="b" d="M82.7,94H72.63a2.82,2.82,0,0,0-2,4.85l5,4.87a2.81,2.81,0,0,0,3.92,0l5-4.87A2.82,2.82,0,0,0,82.7,94Z"/><path class="b" d="M33,91.18c0-4.82,7.74-.57,16.45-2.92S62.74,75.9,67.18,81c4.58,5.31-3.76,13-12.1,14.16C46.15,96.47,33,94,33,91.18Z"/><path class="b" d="M121.93,91.18c0-4.82-7.73-.57-16.44-2.92S92.23,75.9,87.79,81c-4.58,5.31,3.76,13,12.1,14.16C108.82,96.47,121.94,94,121.93,91.18Z"/><path class="b" d="M92.56,116.45c-3.71,4.36-9.46-6.84-15.07-9.35-5.62,2.51-11.37,13.71-15.08,9.35-1.61-1.9,7.33-11.72,14.92-14.87l.16-.08.16.08C85.23,104.73,94.18,114.55,92.56,116.45Z"/><path class="b" d="M77.85,101.47v.11l-.17-.08.1,0Z"/><path class="b" d="M77.68,101.5l-.19.08v-.11h.08Z"/></svg>