<svg xmlns="http://www.w3.org/2000/svg" viewBox="0 0 157.7 148.09"><defs><style>.a{fill:#f7a418;}.b{fill:#a07413;}.c{fill:#832511;}</style></defs><path class="a" d="M139.41,81.34c8.12,29.56,1.17,55.49-60.9,55.49-61.75,0-67.59-25.57-60.89-55.49a75,75,0,0,1,2.09-7.5,4,4,0,0,1-1.83-3.17L14.79,15.52a4.05,4.05,0,0,1,5.7-3.91L59.42,29.29a53.7,53.7,0,0,1,19.09-3.46,56.19,56.19,0,0,1,19.78,3.45l38.92-17.67a4,4,0,0,1,5.7,3.91l-3.09,55.15a4,4,0,0,1-2.62,3.58C138,76.62,138.76,79,139.41,81.34Z"/><path class="b" d="M83.89,94.19H73.82a2.83,2.83,0,0,0-2,4.86l5,4.86a2.81,2.81,0,0,0,3.92,0l5-4.86A2.83,2.83,0,0,0,83.89,94.19Z"/><path class="b" d="M70,86c0-6.79-8.19-.29-17.21-.23S35.59,79.19,35.59,86c0,5,8.19,6.63,17.21,6.64S70,91,70,86Z"/><path class="b" d="M87.69,86c0-6.79,8.19-.29,17.21-.23s17.21-6.56,17.21.23c0,5-8.19,6.63-17.21,6.64S87.69,91,87.69,86Z"/><path class="c" d="M78.86,101.69l.15.08"/><path class="b" d="M79,101.82l-.39.14v-.27Z"/><path class="b" d="M79,108.42c-5.71,2.23-17.18,7.27-16.77,4.46.45-3.18,9.07-8.21,16.38-10.92l.39-.14.38.14c7.31,2.71,15.94,7.74,16.39,10.92C96.19,115.69,84.72,110.65,79,108.42Z"/><path class="b" d="M79.39,102l-.38-.14.37-.13Z"/></svg>