<svg xmlns="http://www.w3.org/2000/svg" viewBox="0 0 322.21 301.79"><defs><style>.a{fill:#99a8af;}.b{fill:#252e33;}.c{fill:#f1db0b;}.d{fill:#cf5b9d;}</style></defs><path class="a" d="M288,269.45c-20.87,21.93-129.72,38.66-132.08-5.79-1.77-33.33,74.38-16.51,83.83-17.28,24.24-2,30.21-12.34,31.83-30.15-22.71,17.09-56.37,20.15-91.83,12-28.49-6.52-51.62-21.32-66-40.51C102.13,193,89,192.92,75,184.54a56.32,56.32,0,0,1-16.39-15.12C52.24,168,12,158.64,1,147.94c6.78-14.33,37.2-35.68,45.93-37.65a84.26,84.26,0,0,1,4.38-14.63c.57-1.42,1.16-2.79,1.76-4.12C48,86,39.15,47.83,43.92,32.17c16.51-.54,57,22.79,57.85,23.29h0a89.21,89.21,0,0,1,20.27.71c23,3.25,34.53,23.23,36.06,46.41,4.62-18-8-39.42-19.21-61.22-3.86-7.47,2-10.45,2-10.45,20.21-9.63,41.35,16.24,48.84,42.45,2.33,8.15,4.54,14.7,6.34,20.07-3-30.9,13.83-45.92,33.35-50.76a16.26,16.26,0,0,0,1.13-1.82c3.57-6.64-9.45-21.7,7.15-26.81s27.06,10.73,34.5,36.82-7.44,13.48-5.14,24.2,15.48,23.14,21.77,37.62h0a90.93,90.93,0,0,1,4.6,9.48,83.78,83.78,0,0,1,5.6,45.22,87.43,87.43,0,0,1-5.6,20.34C313.54,212.61,311.83,253.11,288,269.45Z"/><path class="a" d="M197.09,179a56.87,56.87,0,0,1-7-23.26c-2.78-31.68,10.31-49.08,33.06-51.61a4.55,4.55,0,0,0,3.17-1.94l0,0c4.69-6.6-8.64-22,8.14-26.53s26.64,11.74,33.1,38.09-7.93,13.19-6,24c.85,4.78,12,22.64,14.24,26.43h0a51,51,0,0,1,4.5,23.18c0,.9-.08,1.79-.17,2.68a49.69,49.69,0,0,1-12.27,28.89"/><path class="b" d="M197.09,179c-5.86-8.52-8.6-18.92-9.41-29.17-2-22.66,8.74-44.2,32.84-47.82l2-.31a2.33,2.33,0,0,0,2.16-1.67c.92-4.65-1.52-9.18-1.44-14.2-.56-10.37,11-14.46,19.71-13.17,16.3,2.92,22.56,24,26.4,37.74,1.29,5.21,2.65,10.21,2.39,15.8a11,11,0,0,1-1.3,4.71,7.81,7.81,0,0,1-4.18,3.4,11.85,11.85,0,0,0-2.24.9,5.39,5.39,0,0,0,.2,2.77,44.34,44.34,0,0,0,2.38,5.27c3.22,6.25,8.56,15.14,11.32,19.5a50.92,50.92,0,0,1,4.86,22.68c-.69,12.47-5.85,24.87-14.9,33.48a49.9,49.9,0,0,0,10-26.47,82,82,0,0,0-.48-14,48,48,0,0,0-3.85-13.29l.44.66c-4.17-6.58-8.18-13.39-11.83-20.33a45.62,45.62,0,0,1-2.68-6,11.46,11.46,0,0,1-.53-4.27,5.81,5.81,0,0,1,1.11-3.08,6.12,6.12,0,0,1,2.57-1.86c1.38-.58,2.89-.78,3.49-1.9a6.08,6.08,0,0,0,.64-2.58c.21-4.6-1.08-9.58-2.24-14.17-3.23-11.56-8.93-31.64-22.35-34.06-3.87-.63-9.32.44-12.13,3-4.82,5.28,1.8,14.41-.63,21a7.4,7.4,0,0,1-6.29,5l-1.78.28c-18.61,2.73-27.91,17.55-28.81,35.4-1.55,12.33-.79,25.22,4.58,36.65Z"/><path class="c" d="M100.45,143.35c-3.31,8.82-10,15.35-17.75,11.53s-8.58-11.74-5.27-20.56,9.87-15.88,18.74-11.94C105.75,126.63,103.76,134.53,100.45,143.35Z"/><path class="c" d="M117.46,95.56c3.16-8.87,2.24-18.19-6.12-20.26S97.21,78.73,94.05,87.61s-2.71,18.49,6.61,21.21C110.72,111.75,114.29,104.43,117.46,95.56Z"/><path class="b" d="M96.17,122.38c-8.87-3.94-15.43,3.12-18.74,11.94a31.41,31.41,0,0,0-1.3,4.39,15.38,15.38,0,0,0,23.77,6c.19-.45.38-.9.55-1.37C103.76,134.53,105.75,126.63,96.17,122.38Z"/><path class="b" d="M111.34,75.3c-8.45-2.08-14.13,3.43-17.29,12.31a30.5,30.5,0,0,0-1.58,6.45,15.36,15.36,0,0,0,24.63,2.5l.36-1C120.62,86.69,119.7,77.37,111.34,75.3Z"/><path class="a" d="M136.32,155.69c-3-7.45-8-39.41-19.21-61.22-3.86-7.47,2-10.45,2-10.45,20.21-9.63,41.35,16.24,48.84,42.45s10.27,34.67,11.28,43"/><path class="b" d="M136.32,155.69c-3.16-6.27-6-16.08-8.51-22.75A237,237,0,0,0,121,110a122.32,122.32,0,0,0-5.75-13.62c-.18-.35-.51-1.08-.68-1.44-2.41-4.53-1.38-10.72,3.49-13.21,15.92-7.69,31.65,5.37,40.13,18.06a90.13,90.13,0,0,1,11,22.21c1.86,5.74,3.42,11.78,5.12,17.49,1.93,5.78,2.81,11.78,3.81,17.79a80.16,80.16,0,0,1,1.12,12.17A102.59,102.59,0,0,0,175.51,158c-1.41-3.76-2.86-7.53-4.34-11.28-2-6.77-4.63-16.55-6.73-23.09-5.07-14.81-15.94-34-31.89-38.55a17.77,17.77,0,0,0-11.68.93c-2.29.87-3.11,3.26-2.2,5.74,2.28,5.1,5.23,11.12,7,16.6,2.77,7.69,5,15.53,7,23.36,1.4,8,2,16.06,3.61,24Z"/><path class="b" d="M116.45,118.34l-1.65-5.61a2.1,2.1,0,0,0-3.9-.34l-3.8,7.73a2.1,2.1,0,0,0,2.65,2.88l5.44-2.11A2.11,2.11,0,0,0,116.45,118.34Z"/><path class="d" d="M167.91,35.77c4.52,4.4,3.39,10.65.62,13-3.48,2.93-8.07.11-10.9-4.78s-6.52-9.78-.34-11.5C162.15,31.11,163.81,31.76,167.91,35.77Z"/><path class="d" d="M167.91,35.77c4.52,4.4,3.39,10.65.62,13-3.48,2.93-8.07.11-10.9-4.78s-6.52-9.78-.34-11.5C162.15,31.11,163.81,31.76,167.91,35.77Z"/><path class="d" d="M148.1,34.13c-2.76-.57-5.08-.62-4.61-2.86A4.74,4.74,0,0,1,149.23,28c2.76.58,4.72,3.16,4.25,5.4S150.86,34.71,148.1,34.13Z"/><path class="d" d="M149.09,42.73c-2.76-.58-4.22-1.47-5-3.54s3-3.89,5.75-3.31,4.72,3.16,4.25,5.4S151.85,43.31,149.09,42.73Z"/><path class="d" d="M156.78,31.82c-1.85,0-3.31-.92-2.44-3s4.16-2.4,6.77-1.33,4,5.46,1.72,5.93C158.91,34.21,159.35,31.82,156.78,31.82Z"/><path class="d" d="M259.54,19.39c4.51,4.4,3.38,10.65.61,13-3.48,2.93-8.07.11-10.9-4.78s-6.52-9.78-.34-11.5C253.77,14.73,255.43,15.38,259.54,19.39Z"/><path class="d" d="M259.54,19.39c4.51,4.4,3.38,10.65.61,13-3.48,2.93-8.07.11-10.9-4.78s-6.52-9.78-.34-11.5C253.77,14.73,255.43,15.38,259.54,19.39Z"/><path class="d" d="M239.72,17.75c-2.76-.57-5.08-.62-4.61-2.86a4.74,4.74,0,0,1,5.74-3.31c2.77.58,4.72,3.16,4.25,5.4S242.48,18.33,239.72,17.75Z"/><path class="d" d="M240.71,26.35c-2.76-.58-4.22-1.47-5-3.54s3-3.89,5.75-3.31,4.72,3.16,4.25,5.4S243.47,26.93,240.71,26.35Z"/><path class="d" d="M248.41,15.44c-1.86,0-3.32-.92-2.45-3s4.16-2.4,6.77-1.33,4,5.46,1.72,5.93C250.53,17.83,251,15.44,248.41,15.44Z"/><path class="d" d="M256.49,83.79c4.51,4.4,3.39,10.66.62,13-3.49,2.93-8.08.11-10.9-4.78s-6.52-9.77-.34-11.5C250.72,79.13,252.38,79.78,256.49,83.79Z"/><path class="d" d="M256.49,83.79c4.51,4.4,3.39,10.66.62,13-3.49,2.93-8.08.11-10.9-4.78s-6.52-9.77-.34-11.5C250.72,79.13,252.38,79.78,256.49,83.79Z"/><path class="d" d="M236.68,82.16c-2.76-.58-5.09-.62-4.62-2.87A4.75,4.75,0,0,1,237.81,76c2.76.58,4.72,3.16,4.25,5.41S239.44,82.74,236.68,82.16Z"/><path class="d" d="M237.66,90.75c-2.76-.58-4.21-1.47-5-3.53s3-3.9,5.75-3.32,4.72,3.16,4.25,5.41S240.42,91.33,237.66,90.75Z"/><path class="d" d="M245.36,79.84c-1.86,0-3.31-.91-2.44-3s4.16-2.41,6.77-1.34,4,5.46,1.72,5.94C247.49,82.24,247.92,79.84,245.36,79.84Z"/><path class="d" d="M145,88.74c5.08,3.74,4.82,10.09,2.4,12.77-3,3.38-8,1.22-11.46-3.24s-7.79-8.78-1.91-11.34C138.63,84.92,140.36,85.33,145,88.74Z"/><path class="d" d="M145,88.74c5.08,3.74,4.82,10.09,2.4,12.77-3,3.38-8,1.22-11.46-3.24s-7.79-8.78-1.91-11.34C138.63,84.92,140.36,85.33,145,88.74Z"/><path class="d" d="M125.14,89.84c-2.82-.19-5.13.09-5-2.2a4.75,4.75,0,0,1,5.24-4.07c2.81.19,5.1,2.48,5,4.77S128,90,125.14,89.84Z"/><path class="d" d="M127.29,98.22c-2.81-.19-4.37-.87-5.44-2.81s2.42-4.27,5.24-4.08,5.1,2.49,4.95,4.77S130.1,98.41,127.29,98.22Z"/><path class="d" d="M133.42,86.36c-1.84.26-3.42-.45-2.85-2.67s3.79-3,6.53-2.26,4.67,4.87,2.52,5.64C135.85,88.44,136,86,133.42,86.36Z"/></svg>