<svg xmlns="http://www.w3.org/2000/svg" viewBox="0 0 157.7 150.13"><defs><style>.a{fill:#e0cc00;}.b{fill:#b6910d;}</style></defs><path class="a" d="M139.17,82.36c8.13,29.57,1.18,55.5-60.9,55.5-61.74,0-67.58-25.58-60.88-55.5a72.21,72.21,0,0,1,2.09-7.49,4,4,0,0,1-1.83-3.18L14.56,16.54a4,4,0,0,1,5.7-3.9L59.19,30.31a53.68,53.68,0,0,1,19.08-3.46A56.2,56.2,0,0,1,98.06,30.3L137,12.64a4,4,0,0,1,5.7,3.9l-3.09,55.15A4,4,0,0,1,137,75.27C137.8,77.64,138.53,80,139.17,82.36Z"/><path class="b" d="M82.28,98.55H72.21a2.82,2.82,0,0,0-2,4.85l5,4.87a2.85,2.85,0,0,0,3.93,0l5-4.87A2.82,2.82,0,0,0,82.28,98.55Z"/><path class="b" d="M69.38,89.71c0,6.79-8.19,5-17.21,5S35,96.5,35,89.71c0-5,8.19-3.57,17.21-3.58S69.38,84.74,69.38,89.71Z"/><path class="b" d="M84.66,89.71c0,6.79,8.19,5,17.21,5s17.21,1.83,17.21-5c0-5-8.19-3.57-17.21-3.58S84.66,84.74,84.66,89.71Z"/><path class="b" d="M63.48,111.32c0,4.87,6.44,3.6,13.54,3.56s13.54,1.31,13.54-3.56c0-3.56-6.44-2.56-13.54-2.57S63.48,107.76,63.48,111.32Z"/></svg>