<svg xmlns="http://www.w3.org/2000/svg" viewBox="0 0 322.21 305.87"><defs><style>.a,.b{fill:#fff;}.b{opacity:0.39;}.c{fill:#f6f6f6;opacity:0.56;}.d{fill:#d0ae95;}.e{fill:#009fe3;opacity:0.53;}.f{fill:#1d1d1b;}.g{fill:#d769a5;}</style></defs><path class="a" d="M121.58,45.71c-7-10.77-16.61-21.64-19.47-23.44-4.36-2.74-8.09-3-10.87-.77-2.06,1.69-14.78,23-19.47,40.29C83.18,49.52,101.82,43.34,121.58,45.71Z"/><path class="a" d="M281,132.59c-18,18.73-18,32.68-11.92,50.39s11.24,57.15-8.51,80.68c-20.26,24.14-51.4,23.15-80.71,12-12.69,8.06-30.55,9.48-48.31,9.71-1.27,0-2.73,0-4.35,0L118.64,281c-22.49.33-66.54,6.84-73.2-2-3.86-10.94,7.83-20.42,22.22-25.64a59.06,59.06,0,0,1-7.54-32.85c1.29-22.33,8.47-29.11,7.45-38-.91-7.91-23-18.66-32.34-44.93-7.41-20.78-8.51-48.34-.55-54.24a6.47,6.47,0,0,1,8,.53c13.63,11.54,28.59,56.45,34.12,50.3a24.13,24.13,0,0,1,2.58-2.6C65,117.94,58.49,99.14,64,81.76c8.32-26.18,40.84-39.2,72.63-29.09a74.42,74.42,0,0,1,9.64,3.83c9.79-8,40.43-13.44,45.54-12.76s8.17,2.84,8.85,6.35-6.52,46.5-19.59,56h0a41.72,41.72,0,0,1-2,12.29,43.29,43.29,0,0,1-16.42,22.12c5.45,27.49,30.18,58.87,34.4,89.49,58.55,2.29,7-48,27.06-98.75S283.74,70.3,296,87.66C308.9,105.94,295.43,117.63,281,132.59Z"/><path class="b" d="M131.57,285.39c-1.45,0-2.9,0-4.35,0C128.84,285.4,130.3,285.39,131.57,285.39Z"/><path class="c" d="M131.94,148.34c-.48.51-.74.83-.74.83"/><path class="d" d="M135,150.64c-5.83-4.3-9.84-10.59-14.1-16.33-6.67-9.46-12.79-19.22-20.27-28a52.7,52.7,0,0,0-4.46-4.51c-5.94-5.67-8.51,3.77-9,8.54A83,83,0,0,0,87.38,131c1.62,13.93,6.26,27.54,11.69,40.4a63.39,63.39,0,0,0,11.49,17.76,53.92,53.92,0,0,1-14.11-16.42c-7-12.8-12.52-26.49-14.7-41-1.59-10-3.71-38.42,12-37.34,2.94.31,5.3,2.25,7.18,4.29,1.32,1.28,2.59,2.81,3.76,4.2,7.33,9.19,12.91,19.73,18.66,29.87,3.57,6.16,6.72,12.65,11.62,17.89Z"/><path class="a" d="M154.38,284.43c-17.52,7.32-49.81,9.73-59.79,1.45-8.29-17.29,12.35-28.76,29.89-30.67"/><path class="d" d="M154.38,284.43C140,293,116.93,296.6,100.65,292a21.23,21.23,0,0,1-8.3-4.47,21.67,21.67,0,0,1-2.11-7.41c-1-17.27,20-24.8,34.24-24.94-10.59,2.41-25.2,8.14-28.8,19.17a13.93,13.93,0,0,0,1.37,10.32l-.72-.92c11.57,7.69,44.4,3.84,58.05.65Z"/><path class="e" d="M157.2,99.5c-2.73,6.79-10.23,5.66-18.33,3.21s-13.7-7.9-11.27-14.12c2.68-6.88,10.31-6.81,18.41-4.35S160.35,91.69,157.2,99.5Z"/><path class="e" d="M84,73.54c-2.07,7,4.52,10.79,12.39,13.89S112,89.74,114,83.35c2.16-7.06-3.87-11.74-11.74-14.84S86.38,65.46,84,73.54Z"/><path class="f" d="M84,73.54c-1.94,6.57,3.7,10.29,10.88,13.28a13.61,13.61,0,0,0,8.91-17.67l-1.54-.64C94.37,65.42,86.38,65.46,84,73.54Z"/><path class="f" d="M127.6,88.59c-2.28,5.83,2.5,11,9.78,13.62a13.63,13.63,0,0,0,8.62-18C137.91,81.78,130.28,81.71,127.6,88.59Z"/><path class="g" d="M38,97.2c0,4-1.35,7.42-4.34,7.42s-5.36-3.7-5.36-7.72,2.51-7.72,5.49-7.72S38,93.18,38,97.2Z"/><path class="g" d="M39,85.53c-.73,2.49-1,3.1-2.93,2.89-2.07-.23-2.86-2.15-2.36-4.7A3.66,3.66,0,0,1,37,80.43C39.59,79.91,40.12,81.57,39,85.53Z"/><path class="g" d="M32.77,87.83c-1,1.54-.43,1.35-1.77,1.35-.93-.88-.83-1.18-.66-2.36a2.12,2.12,0,0,1,2.3-1.19C33.6,85.85,33.47,86.72,32.77,87.83Z"/><path class="g" d="M42.89,90.72c-1.61,2.55-2.06,1.72-3.86,1.53-1.54-1.46-.89-1.45-.61-3.4.12-.82,1.94-2.38,3.79-2C43.8,87.25,44.05,88.89,42.89,90.72Z"/><path class="g" d="M95.05,116.91c0,4.77-1.61,8.8-5.15,8.8s-6.36-4.39-6.36-9.15,3-9.16,6.51-9.16S95.05,112.14,95.05,116.91Z"/><path class="g" d="M96.14,103.07c-.86,3-1.21,3.67-3.48,3.42-2.46-.27-3.4-2.55-2.81-5.58A4.37,4.37,0,0,1,93.77,97C96.89,96.4,97.52,98.37,96.14,103.07Z"/><path class="g" d="M88.79,105.8c-1.15,1.83-.51,1.6-2.09,1.6-1.11-1.05-1-1.41-.79-2.81a2.51,2.51,0,0,1,2.73-1.41C89.78,103.44,89.63,104.48,88.79,105.8Z"/><path class="g" d="M100.8,109.23c-1.91,3-2.45,2-4.58,1.81-1.83-1.73-1-1.72-.72-4,.14-1,2.3-2.83,4.5-2.33C101.88,105.1,102.17,107.05,100.8,109.23Z"/><path class="g" d="M118.55,102.22c-1.18,1-4.09,1.29-6.23,1.56-1.45-1.59-3.5-3.67-3.75-5.23-.42-2.62.45-4.19,2.62-4.79a3.2,3.2,0,0,1,3.75,2.58,3.45,3.45,0,0,1,4.72.53C120.92,98.73,120.59,100.49,118.55,102.22Z"/></svg>