<svg xmlns="http://www.w3.org/2000/svg" viewBox="0 0 322.21 305.87"><defs><style>.a,.b{fill:#1d1d1b;}.a{opacity:0.38;}.c{fill:#fff;}.d{fill:#079539;}</style></defs><path class="a" d="M129.94,115.56c-.4.07-.81.14-1.21.19l.81-.84Z"/><path class="a" d="M129.94,115.56c-.4.07-.81.14-1.21.19l.81-.84Z"/><path class="a" d="M129.94,115.56c-.4.07-.81.14-1.21.19l.81-.84Z"/><path class="b" d="M163.94,38.68c7.53,5.11,16.5,10.84,26.33,17A49.44,49.44,0,0,0,200,35a3.7,3.7,0,0,0-3.24-4.45C178,28.64,160.64,26.82,147,24.82A47.42,47.42,0,0,1,163.94,38.68Z"/><path class="b" d="M270.12,210.12c6.9,35.24,4.67,55.81-7.83,67.83-18,17.37-46.79,8.28-64.41,5-11.91,6.15-29,9.34-51.84,9.34l-2.16,0c-12,.21-23.85,0-31.2,0-19.79,0-39.66-3.15-36.09-15.66,1.44-5,6.41-10.09,14.33-13.34-4.57-8.76-7.41-19.59-8.35-32.58a79.05,79.05,0,0,1,1.13-17.74c-7.54-10-13.09-24.61-14.74-42-3.46-18.22-27.13-31.67-35.77-49.55C20.54,95.2,13.52,58.55,27.06,57.7c12.26-.77,7.15,6.89,15.32,23.66C51.74,92.08,58,98.92,68.46,101.27s11.34,2.39,11.34,2.39a100.68,100.68,0,0,0,1.66-10.27C55.32,68.25,73.53,29.1,78,30.3,84.79,32.13,83,31.81,89,33.7c8.51-8.34,17.61-14,30.47-14,18.89,0,29.59,8.69,38.24,18.8,12,8.55,29.36,19.37,48.45,31.14a3.7,3.7,0,0,1,1,5.41c-10.81,14-27.19,20-47,21.69a46.27,46.27,0,0,1-4.52,5.36c-15.92,19.35,8.26,41.55,21.21,56,15,16.68,26,34.13,33,50.79,5.3,12.65,8.45,24,9.22,33.91l.2.08C249,259.23,233.87,226.21,241,181s51.57-51.83,55.91-29.36C300.5,170.15,262.31,170.18,270.12,210.12Z"/><path class="c" d="M110.46,60.1c-6.18-4-10-10.17-5.86-15.42s10.36-4.6,16.54-.62,10.67,10.29,6,16.24C122.75,65.89,116.63,64.08,110.46,60.1Z"/><path class="d" d="M112.36,61.25a13.5,13.5,0,0,0,12.85-13.48c0-.16,0-.32,0-.47h0a24.25,24.25,0,0,0-1.92-1.7h0c-.33-.27-.68-.53-1-.78s-.73-.51-1.1-.75-.77-.49-1.16-.71a20.09,20.09,0,0,0-4.56-2,12.63,12.63,0,0,0-2.21-.42,10,10,0,0,0-2.12,0,8.69,8.69,0,0,0-2,.45,9.84,9.84,0,0,0-4.47,3.29,8.11,8.11,0,0,0-1.54,3,7.21,7.21,0,0,0-.2,2.07c.2,3.8,3.35,7.58,7.6,10.31.63.41,1.27.79,1.9,1.15Z"/><path class="b" d="M82.57,230.67c-3.42-20.67,11.22-35.78,26.71-39.85,22-5.8,44.48,6.83,50.38,12.41"/><path class="c" d="M82.57,230.67c-1.89-6.35-2.36-14.07.53-20.34a39.35,39.35,0,0,1,26.17-21.57c13.59-3.37,27.77-.45,40.11,5.51,2.16.78,3.88,2.45,5.63,3.91a30.43,30.43,0,0,1,4.65,5c-3.78-2.37-8.19-3.3-12-5.37a68.56,68.56,0,0,0-12.07-4.53c-18.62-5.43-40.33-.07-48.79,18.63-.66,2-1.69,3.81-2.34,5.84a37.83,37.83,0,0,0-1.85,12.87Z"/><rect class="b" x="86.24" y="52.83" width="42.11" height="16.85" transform="translate(55.39 -50.86) rotate(35.43)"/><rect class="b" x="104.95" y="38" width="42.11" height="16.85" transform="translate(50.26 -64.45) rotate(35.43)"/></svg>