<svg width="50" height="50" viewBox="0 0 50 50" fill="none" xmlns="http://www.w3.org/2000/svg">
<path d="M8.33337 41.6667H6.77087C6.77087 42.081 6.9355 42.4785 7.22852 42.7715C7.52154 43.0646 7.91898 43.2292 8.33337 43.2292V41.6667ZM8.33337 8.33333V6.77083C7.47044 6.77083 6.77087 7.47039 6.77087 8.33333H8.33337ZM25 9.89583C25.863 9.89583 26.5625 9.19627 26.5625 8.33333C26.5625 7.47039 25.863 6.77083 25 6.77083V9.89583ZM43.2292 25C43.2292 24.1371 42.5296 23.4375 41.6667 23.4375C40.8038 23.4375 40.1042 24.1371 40.1042 25H43.2292ZM41.6667 41.6667V43.2292C42.5296 43.2292 43.2292 42.5296 43.2292 41.6667H41.6667ZM25 40.1042C24.1371 40.1042 23.4375 40.8037 23.4375 41.6667C23.4375 42.5296 24.1371 43.2292 25 43.2292V40.1042ZM16.6667 43.2292C17.5296 43.2292 18.2292 42.5296 18.2292 41.6667C18.2292 40.8037 17.5296 40.1042 16.6667 40.1042V43.2292ZM35.4167 6.24999L36.5215 5.14514C35.9113 4.53495 34.9221 4.53495 34.3119 5.14514L35.4167 6.24999ZM43.75 14.5833L44.8548 15.6882C45.465 15.078 45.465 14.0887 44.8548 13.4785L43.75 14.5833ZM25 33.3333V34.8958C25.4144 34.8958 25.8119 34.7312 26.1048 34.4381L25 33.3333ZM16.6667 33.3333H15.1042C15.1042 34.1962 15.8038 34.8958 16.6667 34.8958V33.3333ZM16.6667 25L15.5619 23.8952C15.2688 24.1881 15.1042 24.5856 15.1042 25H16.6667ZM31.3132 29.2298C31.9234 28.6196 31.9234 27.6304 31.3132 27.0202C30.703 26.41 29.7138 26.41 29.1036 27.0202L31.3132 29.2298ZM34.3119 21.8119C33.7017 22.4221 33.7017 23.4112 34.3119 24.0215C34.9221 24.6317 35.9113 24.6317 36.5215 24.0215L34.3119 21.8119ZM9.89587 41.6667V8.33333H6.77087V41.6667H9.89587ZM8.33337 9.89583H25V6.77083H8.33337V9.89583ZM40.1042 25V41.6667H43.2292V25H40.1042ZM41.6667 40.1042H25V43.2292H41.6667V40.1042ZM16.6667 40.1042H8.33337V43.2292H16.6667V40.1042ZM34.3119 7.35485L42.6452 15.6882L44.8548 13.4785L36.5215 5.14514L34.3119 7.35485ZM25 31.7708H16.6667V34.8958H25V31.7708ZM18.2292 33.3333V25H15.1042V33.3333H18.2292ZM28.0619 13.6048L36.3952 21.9381L38.6048 19.7285L30.2715 11.3951L28.0619 13.6048ZM29.1036 27.0202L23.8952 32.2285L26.1048 34.4381L31.3132 29.2298L29.1036 27.0202ZM42.6452 13.4785L36.3952 19.7285L38.6048 21.9381L44.8548 15.6882L42.6452 13.4785ZM36.3952 19.7285L34.3119 21.8119L36.5215 24.0215L38.6048 21.9381L36.3952 19.7285ZM17.7716 26.1048L30.2715 13.6048L28.0619 11.3951L15.5619 23.8952L17.7716 26.1048ZM30.2715 13.6048L36.5215 7.35485L34.3119 5.14514L28.0619 11.3951L30.2715 13.6048Z" fill="white"/>
</svg>
