<svg width="45" height="45" viewBox="0 0 45 45" fill="none" xmlns="http://www.w3.org/2000/svg">
<path d="M26.9758 10.8877C13.0827 10.8877 9.64801 22.5001 9.64801 22.5001C9.64801 22.5001 13.0826 34.1125 26.9758 34.1125C29.6703 34.1125 31.9698 33.6744 33.9288 32.9702V12.03C31.9698 11.3257 29.6703 10.8877 26.9758 10.8877Z" fill="#FABA45"/>
<path d="M0.667908 14.5703V30.4299C6.60065 30.4299 9.64801 22.5001 9.64801 22.5001C9.64801 22.5001 6.60065 14.5703 0.667908 14.5703Z" fill="#FABA45"/>
<path d="M44.3035 22.5001C44.3035 22.5001 42.0704 14.9565 33.9288 12.03V32.9702C42.0703 30.0437 44.3035 22.5001 44.3035 22.5001Z" fill="#FABA45"/>
<path d="M38.7051 24.2036C39.6459 24.2036 40.4087 23.4409 40.4087 22.5C40.4087 21.5592 39.6459 20.7964 38.7051 20.7964C37.7642 20.7964 37.0015 21.5592 37.0015 22.5C37.0015 23.4409 37.7642 24.2036 38.7051 24.2036Z" fill="#D1AF94"/>
<path d="M26.9758 34.1126C25.2255 34.1126 23.6418 33.9279 22.2094 33.6057L20.1378 37.7026H28.3792L30.3173 33.87C29.2765 34.0257 28.1654 34.1126 26.9758 34.1126Z" fill="#FABA45"/>
<path d="M26.9758 10.8877C28.1654 10.8877 29.2765 10.9746 30.3173 11.1303L28.3792 7.29764H20.1378L22.2094 11.3946C23.6418 11.0723 25.2255 10.8877 26.9758 10.8877Z" fill="#FABA45"/>
<path d="M44.9439 22.3105C44.9198 22.2293 44.3361 20.2937 42.7163 17.9795C41.274 15.9187 38.7079 13.1683 34.5966 11.5673V11.5603L34.1546 11.4014L33.2608 11.0801V11.1064C32.455 10.8622 31.6201 10.6678 30.7592 10.5243L28.7899 6.62976H19.0516L21.2356 10.9489C20.1464 11.2439 19.1059 11.6275 18.1189 12.0997C16.0255 13.1012 14.17 14.4972 12.6041 16.2488C11.0809 17.9527 10.1366 19.6478 9.59973 20.8114C9.20915 20.0597 8.6483 19.0988 7.91495 18.1316C5.81662 15.3648 3.31069 13.9024 0.667891 13.9024H0V31.0978H0.667891C3.31069 31.0978 5.81662 29.6354 7.91486 26.8686C8.64821 25.9016 9.20906 24.9407 9.59964 24.1889C10.1366 25.3525 11.0808 27.0476 12.604 28.7515C14.1699 30.5031 16.0254 31.8991 18.1188 32.9006C19.1058 33.3727 20.1464 33.7564 21.2355 34.0514L19.0515 38.3703H28.7898L30.7591 34.476C31.62 34.3325 32.4549 34.1381 33.2608 33.8939V33.9201L34.1546 33.5988L34.5966 33.44V33.433C38.7078 31.832 41.274 29.0816 42.7163 27.0208C44.3361 24.7066 44.9198 22.771 44.9439 22.6898L45 22.5002L44.9439 22.3105ZM22.5737 10.6351L21.2239 7.96545H27.9685L29.1583 10.3185C29.1371 10.3166 29.1157 10.3153 29.0944 10.3133C28.9579 10.3012 28.8208 10.2902 28.6832 10.2805C28.6434 10.2777 28.6037 10.2749 28.5639 10.2723C28.43 10.2634 28.2954 10.2559 28.1605 10.2494C28.1175 10.2473 28.0746 10.2448 28.0316 10.2431C27.8974 10.2373 27.7624 10.2329 27.6273 10.2294C27.5851 10.2282 27.543 10.2267 27.5007 10.2257C27.3264 10.2219 27.1515 10.2198 26.9757 10.2198C26.7785 10.2198 26.5822 10.2223 26.3868 10.2269C26.3097 10.2288 26.2333 10.2325 26.1565 10.2349C26.0394 10.2389 25.9223 10.2423 25.806 10.2479C25.7141 10.2523 25.6231 10.2584 25.5318 10.2639C25.4309 10.2699 25.3297 10.2755 25.2294 10.2827C25.1361 10.2894 25.0436 10.2977 24.9509 10.3056C24.8523 10.3139 24.7536 10.322 24.6557 10.3315C24.5671 10.3402 24.4792 10.3501 24.3911 10.3597C24.2881 10.3709 24.185 10.3823 24.0827 10.395C24.0028 10.4049 23.9231 10.4157 23.8436 10.4265C23.7325 10.4415 23.6216 10.457 23.5114 10.4735C23.4416 10.484 23.3723 10.4952 23.3029 10.5063C23.1823 10.5257 23.0624 10.5458 22.9429 10.5672C22.8834 10.5779 22.824 10.5889 22.7647 10.6001C22.7011 10.6118 22.637 10.6225 22.5737 10.6351ZM1.33578 29.7237V23.1679H6.93075V21.8321H1.33578V15.2765C5.77503 15.7883 8.39414 21.2779 8.92445 22.5001C8.39379 23.7231 5.77467 29.2119 1.33578 29.7237ZM13.6383 27.9041C11.9869 26.0693 11.0541 24.2136 10.6122 23.1679H22.2703V21.8321H10.6123C11.0545 20.7862 11.9871 18.9306 13.6384 17.0961C15.0865 15.4874 16.7992 14.2063 18.7291 13.2885C19.9128 12.7256 21.1826 12.2994 22.5281 12.0101C22.5897 11.9969 22.6514 11.984 22.7133 11.9714C22.8259 11.9483 22.939 11.926 23.0528 11.9049C23.1218 11.8921 23.1911 11.88 23.2605 11.8678C23.3668 11.8493 23.4735 11.8311 23.5807 11.8142C23.6629 11.8013 23.7457 11.7894 23.8283 11.7773C23.9247 11.7634 24.021 11.7495 24.1181 11.7368C24.2155 11.7242 24.3135 11.7128 24.4117 11.7015C24.4969 11.6918 24.5819 11.6815 24.6676 11.6727C24.7796 11.6611 24.8924 11.6513 25.0052 11.6414C25.0801 11.6349 25.1547 11.6277 25.23 11.6218C25.3547 11.6124 25.4803 11.6048 25.606 11.5974C25.672 11.5935 25.7376 11.5886 25.8039 11.5852C25.9429 11.5782 26.0829 11.5735 26.223 11.5689C26.2778 11.5672 26.332 11.5644 26.3869 11.5631C26.5822 11.5582 26.7785 11.5555 26.9758 11.5555C28.0763 11.5555 29.1595 11.6337 30.1961 11.7875C30.2051 11.7888 30.2141 11.7899 30.2231 11.7913L30.2581 11.7966C31.3025 11.9553 32.3055 12.1922 33.261 12.5064V28.4786V30.2599V32.4938C32.3081 32.8071 31.3078 33.0435 30.2665 33.2023L30.2186 33.2094C29.1754 33.3655 28.0845 33.4447 26.9759 33.4447C26.7786 33.4447 26.5823 33.442 26.387 33.4371C26.3326 33.4358 26.279 33.4329 26.2249 33.4312C26.0841 33.4267 25.9435 33.422 25.8039 33.4149C25.7386 33.4117 25.6742 33.4068 25.6092 33.403C25.4823 33.3954 25.3554 33.3879 25.2294 33.3782C25.1559 33.3726 25.083 33.3654 25.0098 33.3591C24.8951 33.3491 24.7804 33.3392 24.6665 33.3273C24.583 33.3187 24.5002 33.3088 24.4172 33.2992C24.3167 33.2876 24.216 33.276 24.1162 33.263C24.0218 33.2507 23.9281 33.2372 23.8344 33.2237C23.7486 33.2113 23.6629 33.1989 23.5778 33.1855C23.4736 33.169 23.37 33.1514 23.2667 33.1334C23.1939 33.1207 23.1211 33.1079 23.0487 33.0944C22.9385 33.074 22.8288 33.0523 22.7194 33.03C22.6537 33.0166 22.5882 33.0029 22.5229 32.9888C21.1793 32.6995 19.9113 32.2738 18.7292 31.7116C16.7991 30.7939 15.0864 29.5128 13.6383 27.9041ZM29.1583 34.6817L27.9686 37.0346H21.224L22.5738 34.365C22.635 34.3772 22.6972 34.3875 22.7586 34.3991C22.8217 34.411 22.8849 34.4228 22.9482 34.4341C23.064 34.4546 23.1803 34.4742 23.297 34.493C23.3696 34.5048 23.4422 34.5164 23.5151 34.5275C23.6224 34.5436 23.7303 34.5586 23.8384 34.5732C23.9205 34.5843 24.0026 34.5955 24.0852 34.6057C24.1853 34.618 24.2859 34.6291 24.3867 34.6402C24.4767 34.65 24.5666 34.6603 24.6571 34.669C24.7534 34.6783 24.8504 34.6863 24.9473 34.6944C25.0415 34.7025 25.1355 34.7109 25.2302 34.7178C25.3295 34.7249 25.4295 34.7304 25.5293 34.7364C25.6215 34.7418 25.7134 34.7481 25.8061 34.7525C25.9216 34.758 26.0379 34.7615 26.1541 34.7653C26.2318 34.7679 26.309 34.7716 26.387 34.7734C26.5823 34.7781 26.7785 34.7806 26.9756 34.7806C27.1515 34.7806 27.3264 34.7784 27.5006 34.7747C27.543 34.7737 27.5851 34.7722 27.6274 34.7709C27.7625 34.7675 27.8973 34.7631 28.0314 34.7573C28.0746 34.7555 28.1176 34.753 28.1607 34.751C28.2956 34.7445 28.43 34.7369 28.5638 34.7281C28.6036 34.7255 28.6433 34.7227 28.683 34.7198C28.8208 34.7101 28.9581 34.6992 29.0948 34.687C29.1161 34.6848 29.1373 34.6837 29.1583 34.6817ZM34.5967 31.9911V30.2599V28.4787V13.0083C37.4231 14.2077 39.7734 16.1203 41.593 18.7041C42.8196 20.446 43.4167 21.9786 43.5997 22.5001C43.2096 23.6091 40.9404 29.2885 34.5967 31.9911Z" fill="#53180F"/>
<path d="M25.6555 18.2408H24.3197V26.7592H25.6555V18.2408Z" fill="#53180F"/>
<path d="M28.7674 18.2408H27.4316V26.7592H28.7674V18.2408Z" fill="#53180F"/>
<path d="M31.8794 18.2408H30.5436V26.7592H31.8794V18.2408Z" fill="#53180F"/>
<path d="M38.7051 20.1284C37.3974 20.1284 36.3336 21.1923 36.3336 22.5C36.3336 23.8077 37.3974 24.8715 38.7051 24.8715C40.0127 24.8715 41.0765 23.8077 41.0765 22.5C41.0765 21.1924 40.0126 20.1284 38.7051 20.1284ZM38.7051 23.5358C38.134 23.5358 37.6694 23.0711 37.6694 22.5C37.6694 21.9289 38.134 21.4642 38.7051 21.4642C39.2762 21.4642 39.7408 21.9289 39.7408 22.5C39.7408 23.0711 39.2761 23.5358 38.7051 23.5358Z" fill="#53180F"/>
</svg>
