<svg width="45" height="45" viewBox="0 0 45 45" fill="none" xmlns="http://www.w3.org/2000/svg">
<path d="M0.667908 14.5703V30.43C6.60055 30.43 9.64808 22.5002 9.64808 22.5002C9.64808 22.5002 6.60064 14.5703 0.667908 14.5703Z" fill="#FABA45"/>
<path d="M33.9288 28.0218V32.9704C42.0704 30.0438 44.3037 22.5001 44.3037 22.5001C44.3037 22.5001 42.0705 14.9565 33.9288 12.0298V26.2406" fill="#FABA45"/>
<path d="M44.944 22.3105C44.9199 22.2292 44.3363 20.2938 42.7164 17.9794C41.223 15.8457 38.5253 12.9724 34.1547 11.4013L33.2608 11.08V21.8321H31.0342V10.8876H29.6984V21.832H27.4718V10.8876H26.1361V21.832H23.9094V11.1912H22.5737V21.832H20.347V12.1556H19.0113V21.832H16.7846V14.0289H15.4489V21.832H13.2222V17.3369H11.8865V21.832H10.0916C9.77778 21.122 9.05435 19.634 7.91493 18.1316C5.81671 15.3648 3.31068 13.9023 0.667971 13.9023H0V31.0979H0.667884C3.31059 31.0979 5.81663 29.6354 7.91485 26.8685C9.05435 25.366 9.77778 23.8779 10.0916 23.1679H11.8861V27.6629H13.2219V23.1679H15.4485V30.971H16.7843V23.1679H19.0109V32.8443H20.3467V23.168H22.5733V33.8089H23.9091V23.168H26.1357V34.1124H27.4715V23.168H29.6981V34.1124H31.0339V23.168H33.2605V26.2406H34.5963V13.0082C37.4227 14.2077 39.773 16.1204 41.5926 18.704C42.8193 20.446 43.4163 21.9785 43.5994 22.5001C43.2092 23.6091 40.94 29.2885 34.5962 31.9912V28.0218H33.2604V33.9201L34.1543 33.5988C38.5249 32.0277 41.2225 29.1543 42.716 27.0207C44.3357 24.7065 44.9195 22.7709 44.9436 22.6896L44.9996 22.5L44.944 22.3105ZM1.33577 29.7239V23.1678H6.93073V21.832H1.33577V15.2763C5.77558 15.7882 8.39491 21.2793 8.92454 22.5004C8.39579 23.7237 5.78437 29.2136 1.33577 29.7239Z" fill="#53180F"/>
<path d="M37.3632 24.7866L38.7052 23.4446L40.0471 24.7866L40.9916 23.8421L39.6496 22.5L40.9916 21.158L40.0471 20.2135L38.7052 21.5554L37.3632 20.2135L36.4188 21.158L37.7607 22.5L36.4188 23.8421L37.3632 24.7866Z" fill="#53180F"/>
</svg>
