<?xml version="1.0" encoding="UTF-8"?><svg id="h" xmlns="http://www.w3.org/2000/svg" viewBox="0 0 323.91 301.79"><defs><style>.i{fill:#ae4617;}.j{fill:#edaacd;}.k{fill:#f1e7de;}</style></defs><path class="i" d="M161.64,268.12c.23,0,.46,0,.68,0h-.68Z"/><path class="i" d="M162.32,74.86c-.22,0-.45,.01-.68,.01h.68Z"/><path class="i" d="M162.99,74.86h-.12c-.19,.01-.37,0-.55,0h.67Z"/><path class="i" d="M162.99,268.12h-.67c.18,0,.36,0,.55,0h.12Z"/><path class="i" d="M164.23,268.12c-.23,0-.46,0-.68,0h.68Z"/><path class="i" d="M163.55,74.86c.22,0,.45,.01,.68,.01h-.68Z"/><path class="i" d="M163.54,74.86c-.18,0-.36,.01-.55,.01h.55Z"/><path class="i" d="M274.57,166.77c2.91,8.76,4.53,17.4,4.64,25.53,.76,58.48-63.25,75.54-116.22,75.82h-.12c-52.97-.28-116.98-17.34-116.22-75.82,.11-8.13,1.73-16.77,4.64-25.53-12.65-41.05-6.47-124.29,3.46-131.96,13.35-10.32,80.64,45.03,80.64,45.03,8.93-3.05,18.15-4.81,27.48-4.97h.12c9.33,.16,18.55,1.92,27.48,4.97,0,0,67.29-55.34,80.64-45.03,9.93,7.67,16.11,90.91,3.46,131.96Z"/><path class="k" d="M244.76,169.29c.01,15.56-12.19,28.3-27.57,29.09v.27l-108.41,.08v-.25c-14.51-1.74-25.76-14.09-25.77-29.08-.01-16.08,12.91-29.13,28.96-29.32-1.97-3.9-3.08-8.31-3.08-12.99-.01-16.08,13.01-29.12,29.08-29.13,10.57-.01,19.82,5.61,24.93,14.05,5.28-7.32,13.88-12.09,23.59-12.09,16.07-.01,29.11,13,29.12,29.08,0,4.02-.81,7.84-2.29,11.32,.75-.08,1.53-.1,2.3-.1,16.08-.01,29.12,13,29.13,29.07Z"/><path class="k" d="M165.05,113.87c-.26-.02-.52-.02-.78-.02-.34,0-.66-.01-.99,0,.31-.5,.64-.97,1-1.45,.27,.47,.54,.97,.78,1.47Z"/><path class="k" d="M165.05,113.87c-.26-.02-.52-.02-.78-.02-.34,0-.66-.01-.99,0,.31-.5,.64-.97,1-1.45,.27,.47,.54,.97,.78,1.47Z"/><g><path class="i" d="M112.78,167.62c-.54,2.38-1.29,5.98-2.25,10.78-.23,1.66-.45,3.31-.66,4.96-.49,2.09-1.39,3.13-2.7,3.13-.82,0-1.47-.35-1.95-1.04-.41-.59-.61-1.29-.61-2.09,0-2.38,.41-5.28,1.23-8.71,1.23-5.13,1.89-7.97,1.99-8.53,.35-2.26,.7-4.53,1.06-6.79,.54-3.12,1.12-5.19,1.74-6.23,.63-1.04,1.42-1.55,2.37-1.55,1.08,0,1.88,.68,2.4,2.03,.48,1.28,.99,3.9,1.54,7.85,.52,3.84,1.31,7.97,2.34,12.39,1.36-4.37,2.62-9.16,3.79-14.38l1-5.07c.64-2.1,1.64-3.15,2.99-3.15s2.27,1.22,2.9,3.66c.26,.98,.54,2.82,.84,5.51,.69,6.26,1.56,11.63,2.61,16.1,1.06,4.54,1.59,7.01,1.59,7.41,0,.87-.28,1.59-.84,2.18-.52,.53-1.11,.79-1.77,.79-1.3,0-2.27-1.15-2.9-3.44l-1-5.34c-.57-2.65-1.19-6.45-1.86-11.4-.54,1.97-1.43,5.06-2.67,9.28l-1.07,4.06c-.44,1.6-.9,2.92-1.38,3.95-.63,1.37-1.51,2.05-2.65,2.05s-1.98-.82-2.58-2.45l-1-4.1c-.93-3.76-1.76-7.72-2.5-11.86Z"/><path class="i" d="M155.5,156.77c-.24,0-.49-.04-.75-.13-1.93-.65-3.81-.97-5.63-.97-.89,0-1.85,.09-2.88,.26-1.03,.18-2.12,.44-3.27,.79,0,1.96-.05,4.86-.16,8.71,.67-.06,3-.33,6.99-.82,2.28-.28,3.72-.42,4.33-.42,.7,0,1.31,.28,1.81,.83s.75,1.28,.75,2.19c0,1.75-.76,2.74-2.27,2.98-.95,.09-2.38,.24-4.28,.44-1.69,.24-4.25,.52-7.66,.86-.08,1.87-.12,3.37-.12,4.52,0,2.88,.14,4.52,.41,4.92,.13,.19,.88,.29,2.25,.29,.74,0,1.85-.02,3.34-.07,1.49-.04,2.61-.07,3.35-.07,.24,0,.59-.04,1.06-.13,.46-.09,.81-.13,1.04-.13,.69,0,1.28,.24,1.77,.73,.56,.54,.84,1.31,.84,2.29,0,1.65-.7,2.63-2.09,2.95-1.19,.28-3.67,.42-7.42,.42s-6.42-.65-7.6-1.94c-1.3-1.43-1.95-4.51-1.95-9.26,0-1.97,.12-4.93,.35-8.88s.35-6.9,.35-8.85c0-.51-.06-1.27-.18-2.28-.12-1.01-.18-1.77-.18-2.28,0-2.23,.83-3.35,2.5-3.35,.53,0,1.01,.18,1.45,.55,1.38-.43,2.7-.75,3.94-.96,1.25-.21,2.42-.32,3.53-.32,3,0,5.41,.43,7.21,1.28,1.1,.51,1.65,1.45,1.65,2.8,0,.76-.21,1.44-.64,2.03-.48,.68-1.09,1.01-1.83,1.01Z"/><path class="i" d="M172.6,186.39c-3.53,0-6.54-1.25-9.02-3.75-2.65-2.68-3.97-6.14-3.97-10.39,0-5,1.27-9.55,3.81-13.67,2.85-4.63,6.44-6.95,10.77-6.95s7.28,1.18,9.36,3.53c2.08,2.35,3.11,5.89,3.11,10.61,0,5-1.17,9.53-3.51,13.58-2.7,4.69-6.21,7.03-10.55,7.03Zm1.59-28.77c-2.66,0-4.94,1.59-6.83,4.76-1.78,2.97-2.67,6.26-2.67,9.88,0,2.44,.77,4.42,2.31,5.95,1.48,1.47,3.35,2.21,5.6,2.21,2.62,0,4.81-1.59,6.56-4.76,1.61-2.9,2.42-6.19,2.42-9.88,0-3.09-.56-5.23-1.68-6.44-1.07-1.15-2.98-1.72-5.71-1.72Z"/><path class="i" d="M224.49,156.75c-.2,.6-.44,1.35-.72,2.23-.2,.85-.53,2.12-.98,3.79-.68,2.16-1.76,5.31-3.24,9.44-1.51,4.2-2.6,7.34-3.26,9.42-.49,1.54-.95,2.78-1.38,3.7-.56,1.22-1.41,1.83-2.56,1.83-.68,0-1.29-.23-1.84-.68-.64-.53-.99-1.23-1.04-2.09-.55-1.69-.89-3.07-1.04-4.15-.53-3.15-1.25-7.87-2.18-14.18-.78,2.95-1.61,5.61-2.5,7.96-1.34,3.53-2.21,6.3-2.63,8.31,.11,.32,.16,.67,.16,1.04,0,.91-.33,1.65-.98,2.23-.57,.48-1.2,.73-1.9,.73-.87,0-1.59-.27-2.17-.82-.62-.6-.94-1.43-.97-2.47l-.55-2.58c-.39-2.29-1.04-5.72-1.93-10.27-.79-3.48-2.11-8.44-3.95-14.88-.11-.37-.16-.73-.16-1.1,0-.88,.27-1.58,.82-2.09,.49-.47,1.08-.71,1.77-.71,.91,0,1.63,.47,2.16,1.41,.3,.51,.64,1.45,1.02,2.8,1.17,4.15,2.49,10.19,3.95,18.12,.95-2.87,1.93-6.25,2.92-10.14,.8-3.18,1.45-5.43,1.95-6.77,1.19-3.2,2.41-4.81,3.65-4.81,1.17,0,2.02,.79,2.56,2.36,.26,.75,.52,2.11,.77,4.08,.07,.6,.23,2.08,.46,4.43,.25,2.53,1,7.13,2.25,13.8,1.26-3.65,2.96-8.9,5.1-15.77,.13-.41,.44-1.76,.93-4.06,.35-1.65,.78-2.95,1.31-3.9,.57-1.03,1.34-1.54,2.29-1.54,.73,0,1.33,.28,1.81,.83,.48,.55,.72,1.26,.72,2.13,0,.31-.21,1.1-.63,2.38Z"/></g><g><path class="j" d="M157.66,234.23c-.21-.21-.46-.62-.79-1.21-2.17-4.02-4.81-6.89-7.53-8.76,1.78,2.49,2.74,3.88,2.92,4.15,.33,.48,.53,.82,.61,1,.08,.18,.01,.14-.21-.09-.23-.23-.54-.58-.96-1.02-.42-.44-.82-.86-1.21-1.27-.51-.55-1.26-1.36-2.26-2.45-1-1.09-1.75-1.91-2.26-2.45-3.26-3.53-7.23-5.3-6.14-9.33,.15-.54,.51-1.08,1.02-1.62,.66-.7,1.32-1.18,1.97-1.33,1.75-.41,2.85,.02,2.89,.02,1.05,.14,1.88,.43,2.54,.93,2.9,2.15,5.19,5.77,6.04,9.12,.35,1.38,.33,2.53,.05,3.37-.28,.84-.83,1.38-1.61,1.59,2.17,2.1,3.66,4.27,4.69,6.35,.27,.54,.45,1.08,.57,1.6,.13,.6,.16,1.04,.09,1.31-.07,.27-.2,.29-.43,.06Zm-13.32-20.54c-.07-.01-.54-.14-1.51-.24,.23,3.13,2.09,4.34,3.95,7.04,.18,.05,.34,.1,.46,.14,1.64,.5,2.7,.6,3.26,.24,.24-.15,.43-.4,.57-.74,.14-.34,.18-.63,.09-.85-.42-1.1-1.44-2.24-2.93-3.47-1.4-1.16-2.63-1.86-3.9-2.12Z"/><path class="j" d="M166.81,216.12c-.41,.02-1.53-.09-3.38-.45-.13,2.39-.2,5.22-.22,8.79-.02,3.15-.03,4.73-.05,7.88,.78-.05,1.58-.18,2.35-.39,.33-.09,.58,.04,.74,.41,.15,.37,.18,.86,.1,1.49-.08,.63-.24,1.23-.47,1.78-.23,.55-.48,.9-.76,1.01-.27,.11-.68,.27-1.25,.38-.57,.11-1.01,.11-1.29,.09-.34-.03-.85,.02-1.46-.01-.61-.03-1.01-.22-1.28-.43-.24-.19-.45-.6-.68-1.19-.24-.59-.42-1.18-.54-1.8-.12-.61-.12-1.06,0-1.36,.12-.3,.33-.37,.65-.2,.36,.18,.84,.32,1.49,.31-.11-1.37-.31-3.98-.59-7.84-.23-3.14-.47-6.02-.32-9.2-1.12,0-1.67,0-2.77-.04-.51-.04-.94-.32-1.28-.83-.35-.51-.51-1.12-.47-1.81,.05-.7,.28-1.25,.65-1.65,.35-.37,.74-.57,1.18-.62,.71-.08,1.93-.11,3.65-.1,1.56,0,3.55,.25,6.07,.7,1,.18,1.61,.96,1.65,2.47,.02,.8-.18,1.46-.58,1.95-.33,.41-.7,.63-1.11,.66Z"/><path class="j" d="M169.37,233.63c-.94,1.01-1.49,1.24-1.83,.56-.29-.55-.39-1.57-.17-2.93,.11-.7,.3-1.33,.58-1.9,.29-.57,.62-.94,.99-1.13,.5-.25,.74,.05,.7,.88-.06,1.11,.35,1.3,1.29,.63,.81-.57,1.74-1.5,2.93-2.67,1.23-1.22,2.18-2.17,2.72-2.95,.73-1.07,.89-1.65,.46-1.76-.31-.08-1.17,.1-2.58,.55-1.09,.35-1.96,.38-2.68,.03-.98-.47-1.36-1.6-.98-3.28,.48-2.1,1.74-4.35,3.41-6.34s3.19-2.74,5.23-2.79c.81-.02,1.83,.12,3.26,.53,1.78,.5,2.53,1.45,2.55,2.11,.02,.47-.18,.85-.55,1.17-.41,.36-.92,.52-1.45,.53-.4,0-.97-.02-1.7-.13-.73-.11-1.31-.16-1.71-.12-1.08,.11-2.15,.56-3.28,1.32-1.15,.79-1.89,1.55-2.14,2.28-.13,.38-.1,.67,.09,.86,.19,.19,.56,.3,1.03,.25,.88-.08,1.84-.29,2.73-.42,1.52-.22,2.54,.06,2.67,.86,.15,.89-.66,2.1-2.09,3.65-1.74,1.88-3.75,3.61-5.74,5.84-1.51,1.69-2.65,3.21-3.72,4.36Z"/></g></svg>