<svg width="88" height="23" viewBox="0 0 88 23" fill="none" xmlns="http://www.w3.org/2000/svg">
<g clip-path="url(#clip0_58_645)">
<path d="M86.7095 22.1258L0.769802 22.1228L0.707399 22.1169L0.650995 22.0991L0.597611 22.0724L0.553194 22.0339L0.514767 21.9895L0.488259 21.9362L0.470708 21.8769L0.462091 21.8147L3.18204 19.1131L6.09724 16.1898L8.05919 14.2595L10.9652 11.3454L8.08738 8.43521L6.14611 6.50293L3.14925 3.49152L0.566426 0.873075L0.57267 0.810874L0.590795 0.75163L0.617804 0.70128L0.656676 0.653886L0.704418 0.618334L0.755108 0.588721L0.81465 0.570949L0.87712 0.56502L86.8168 0.567985L86.8792 0.573905L86.9356 0.591677L86.989 0.621299L87.0334 0.656842L87.0718 0.704236L87.1013 0.754595L87.1189 0.81383L87.1245 0.87604L84.5134 3.49449L81.8837 6.11145L78.7606 9.21948L76.6214 11.3484L78.739 13.4762L81.8315 16.5838L84.4373 19.2022L87.0202 21.8207L87.0139 21.8829L86.9958 21.9391L86.9688 21.9925L86.9299 22.0369L86.8852 22.0754L86.8315 22.1021L86.772 22.1198L86.7095 22.1258Z" fill="#D1AF94" stroke="#956F57" stroke-width="0.33"/>
</g>
<defs>
<clipPath id="clip0_58_645">
<rect width="86.6622" height="21.6655" fill="white" transform="matrix(1 0 -0.00484005 0.999988 0.514526 0.514496)"/>
</clipPath>
</defs>
</svg>
