<svg width="27" height="27" viewBox="0 0 27 27" fill="none" xmlns="http://www.w3.org/2000/svg">
<g clip-path="url(#clip0_33_160)">
<path d="M15.3923 15.7792C15.9038 15.4312 15.4178 15.15 15.0705 14.6377L6.42079 0.566996C6.25249 0.320914 5.99367 0.151408 5.70083 0.0954819C5.408 0.0395563 5.10493 0.101754 4.85779 0.268496C4.34629 0.616496 4.21129 1.31925 4.55929 1.8315L14.4495 15.0592C14.7975 15.5715 14.88 16.1272 15.3923 15.7792ZM14.1758 15.7485C14.5913 15.2902 14.0528 15.1305 13.5945 14.715L1.87954 3.072C1.65812 2.87241 1.36673 2.76851 1.06899 2.78298C0.771238 2.79745 0.491305 2.92912 0.290287 3.14925C0.0906963 3.37067 -0.0132036 3.66205 0.00126934 3.9598C0.0157423 4.25754 0.147412 4.53748 0.367537 4.7385L13.0913 15.27C13.5495 15.6862 13.7603 16.2067 14.1758 15.7485Z" fill="#662113"/>
<path d="M15 24H1.5C0.675 24 0 24.675 0 25.5C0 26.325 0.675 27 1.5 27H15C15.825 27 16.5 26.325 16.5 25.5C16.5 24.675 15.825 24 15 24Z" fill="#956F57"/>
<path d="M15 27C8.37258 27 3 21.6274 3 15C3 8.37258 8.37258 3 15 3C21.6274 3 27 8.37258 27 15C27 21.6274 21.6274 27 15 27Z" fill="#956F57"/>
<path d="M19.6222 22.2667C21.7327 22.2667 23.1187 22.0125 23.2215 21.993C23.4141 21.9533 23.5835 21.8394 23.693 21.676C23.8025 21.5125 23.8434 21.3126 23.8069 21.1193C23.7704 20.926 23.6594 20.7548 23.4979 20.6425C23.3363 20.5303 23.1371 20.486 22.9432 20.5192C22.8997 20.5282 18.5497 21.3157 13.5082 19.9942C8.47348 18.6742 5.51923 15.8872 5.48998 15.8595C5.34626 15.722 5.15379 15.6471 4.95491 15.6515C4.75603 15.6558 4.56703 15.739 4.42948 15.8827C4.29193 16.0265 4.21711 16.2189 4.22147 16.4178C4.22583 16.6167 4.30901 16.8057 4.45273 16.9432C4.58398 17.0685 7.72048 20.0265 13.1272 21.4455C15.5812 22.0882 17.856 22.2667 19.6222 22.2667Z" fill="#D1AF94"/>
<path d="M20.8988 19.6568C23.4728 19.6568 25.3568 19.3718 25.494 19.3508C25.5914 19.3356 25.6848 19.3015 25.769 19.2503C25.8531 19.199 25.9264 19.1317 25.9845 19.0522C26.102 18.8916 26.1508 18.6909 26.1203 18.4943C26.0897 18.2976 25.9823 18.1212 25.8217 18.0037C25.6611 17.8863 25.4604 17.8375 25.2638 17.868C25.2068 17.877 19.494 18.7365 14.4308 17.4083C9.38851 16.0868 5.17051 12.237 5.12851 12.1988C4.98199 12.0654 4.78862 11.9954 4.59065 12.0041C4.39268 12.0128 4.2062 12.0994 4.07195 12.2452C3.93769 12.3909 3.86657 12.5839 3.87413 12.7819C3.88168 12.9799 3.96729 13.1669 4.11226 13.302C4.29451 13.4708 8.65051 17.4443 14.0505 18.8603C16.4168 19.4805 18.8715 19.6568 20.8988 19.6568Z" fill="#D1AF94"/>
<path d="M21.603 16.6658C23.931 16.6658 25.554 16.4048 25.6748 16.3853C25.8707 16.3527 26.0457 16.2438 26.1614 16.0824C26.2771 15.921 26.3241 15.7202 26.292 15.5243C26.2769 15.4267 26.2426 15.3331 26.1909 15.2489C26.1392 15.1648 26.0712 15.0918 25.9909 15.0343C25.9107 14.9767 25.8198 14.9358 25.7235 14.9138C25.6272 14.8918 25.5276 14.8892 25.4303 14.9063C25.38 14.9145 20.283 15.726 15.228 14.4C10.1933 13.08 6.48003 9.56775 6.44403 9.5325C6.30031 9.39495 6.10785 9.32013 5.90896 9.32449C5.71008 9.32885 5.52108 9.41204 5.38353 9.55575C5.24598 9.69947 5.17116 9.89194 5.17552 10.0908C5.17988 10.2897 5.26307 10.4787 5.40678 10.6163C5.56878 10.7715 9.44103 14.4345 14.8478 15.852C17.2785 16.4873 19.6808 16.6658 21.603 16.6658Z" fill="#D1AF94"/>
<path d="M21.4177 13.9245C21.5949 13.9243 21.7663 13.8614 21.9015 13.7469C22.0367 13.6324 22.127 13.4737 22.1564 13.299C23.0429 8.02574 21.0674 5.50949 20.9834 5.40524C20.859 5.24998 20.678 5.15052 20.4803 5.12872C20.2825 5.10692 20.0842 5.16457 19.9289 5.28899C19.7737 5.41341 19.6742 5.5944 19.6524 5.79216C19.6306 5.98992 19.6883 6.18823 19.8127 6.34349C19.8449 6.38549 21.4379 8.52298 20.6774 13.05C20.6595 13.1575 20.6651 13.2677 20.6941 13.3728C20.723 13.478 20.7745 13.5756 20.8449 13.6588C20.9154 13.742 21.0031 13.8089 21.102 13.8548C21.2009 13.9007 21.3086 13.9245 21.4177 13.9245ZM18.2459 13.743C18.43 13.7427 18.6075 13.6747 18.7447 13.5521C18.8818 13.4294 18.9691 13.2606 18.9899 13.0777C19.6874 6.92474 17.8424 4.32224 17.7629 4.21424C17.6452 4.05584 17.4697 3.95024 17.2746 3.92034C17.0796 3.89045 16.8805 3.93866 16.7208 4.05452C16.561 4.17039 16.4533 4.34457 16.4211 4.53929C16.3889 4.73402 16.4347 4.93359 16.5487 5.09474C16.5787 5.13749 18.1199 7.43548 17.4997 12.9075C17.4876 13.0126 17.4979 13.1191 17.53 13.2199C17.562 13.3208 17.615 13.4137 17.6854 13.4926C17.7559 13.5715 17.8423 13.6346 17.9389 13.6778C18.0355 13.7209 18.1401 13.7431 18.2459 13.743ZM14.9549 12.9075C15.1376 12.9073 15.3139 12.8404 15.4507 12.7194C15.5875 12.5985 15.6755 12.4317 15.6982 12.2505C16.3289 7.17224 14.8784 4.41599 14.8162 4.30124C14.7212 4.12747 14.5613 3.99835 14.3714 3.94205C14.1815 3.88574 13.977 3.90683 13.8027 4.00071C13.6283 4.09459 13.4981 4.25364 13.4405 4.44315C13.383 4.63265 13.4027 4.83723 13.4954 5.01224C13.5217 5.06324 14.7734 7.53073 14.2102 12.066C14.1972 12.1714 14.2068 12.2784 14.2383 12.3799C14.2698 12.4814 14.3225 12.575 14.393 12.6545C14.4634 12.7341 14.5499 12.7978 14.6468 12.8414C14.7437 12.885 14.8487 12.9075 14.9549 12.9075ZM11.4697 11.262C11.6488 11.2619 11.822 11.1976 11.9578 11.0808C12.0936 10.9639 12.183 10.8023 12.2099 10.6252C12.7814 6.88349 12.0329 5.08724 12.0007 5.01299C11.9228 4.83009 11.7755 4.68561 11.5911 4.61135C11.4067 4.53708 11.2003 4.53911 11.0174 4.61699C10.8345 4.69486 10.6901 4.8422 10.6158 5.0266C10.5415 5.21099 10.5436 5.41734 10.6214 5.60024C10.6372 5.64074 11.2214 7.16848 10.7287 10.3987C10.7124 10.5055 10.7193 10.6146 10.7491 10.7184C10.7788 10.8223 10.8306 10.9185 10.901 11.0005C10.9714 11.0825 11.0586 11.1483 11.1568 11.1934C11.2549 11.2385 11.3617 11.2619 11.4697 11.262ZM17.1584 25.875C17.2549 25.8751 17.3504 25.8565 17.4397 25.8202C18.3644 25.4452 19.2149 24.6037 19.3087 24.5092C19.4449 24.3673 19.5199 24.1776 19.5175 23.9809C19.5152 23.7842 19.4356 23.5963 19.296 23.4577C19.1564 23.3191 18.968 23.2409 18.7713 23.2399C18.5746 23.2389 18.3854 23.3153 18.2444 23.4525C18.0472 23.6505 17.4179 24.2107 16.8757 24.4305C16.7155 24.4967 16.5831 24.6164 16.5011 24.7692C16.4191 24.9219 16.3925 25.0983 16.4258 25.2685C16.4591 25.4386 16.5503 25.592 16.6838 25.7025C16.8174 25.8131 16.9851 25.874 17.1584 25.875ZM12.8812 25.992C13.0171 25.992 13.1504 25.9549 13.2667 25.8847C14.2904 25.2697 15.5692 24.015 15.6232 23.9625C15.6934 23.8933 15.7493 23.811 15.7878 23.7203C15.8262 23.6295 15.8463 23.5321 15.8471 23.4336C15.8479 23.335 15.8292 23.2373 15.7922 23.146C15.7552 23.0546 15.7006 22.9715 15.6314 22.9012C15.5623 22.831 15.48 22.7751 15.3893 22.7367C15.2985 22.6983 15.2011 22.6781 15.1025 22.6773C15.004 22.6766 14.9062 22.6952 14.8149 22.7322C14.7236 22.7692 14.6404 22.8238 14.5702 22.893C14.5582 22.905 13.3642 24.0757 12.4942 24.5985C12.3533 24.6828 12.2439 24.8111 12.183 24.9636C12.122 25.1161 12.1128 25.2844 12.1568 25.4427C12.2007 25.6009 12.2954 25.7404 12.4263 25.8396C12.5571 25.9388 12.717 25.9924 12.8812 25.992ZM9.63369 24.7312C9.75784 24.7313 9.88004 24.7004 9.98919 24.6412C10.8464 24.18 11.7629 23.1937 11.8649 23.0827C11.9316 23.0103 11.9834 22.9254 12.0172 22.833C12.0511 22.7405 12.0664 22.6423 12.0622 22.5439C12.058 22.4455 12.0345 22.3489 11.9929 22.2597C11.9513 22.1704 11.8925 22.0902 11.8199 22.0237C11.6732 21.8897 11.4793 21.8192 11.2808 21.8277C11.0822 21.8361 10.8951 21.9228 10.7602 22.0687C10.5299 22.3192 9.81519 23.0317 9.27669 23.322C9.12887 23.4006 9.01169 23.5266 8.9439 23.6797C8.8761 23.8328 8.86161 24.0042 8.90273 24.1666C8.94385 24.3289 9.03821 24.4727 9.17072 24.5751C9.30324 24.6775 9.46625 24.7324 9.63369 24.7312ZM7.04994 22.6372C7.16831 22.6373 7.285 22.6093 7.39044 22.5555C7.84344 22.3237 8.35644 21.924 8.41344 21.8797C8.56312 21.7547 8.65821 21.5763 8.67855 21.3824C8.6989 21.1884 8.64289 20.9941 8.52241 20.8408C8.40193 20.6874 8.22645 20.587 8.03319 20.5609C7.83993 20.5347 7.64409 20.5849 7.48719 20.7007C7.36344 20.7975 6.98169 21.0802 6.70794 21.2197C6.55813 21.2965 6.4385 21.4214 6.36828 21.5744C6.29807 21.7274 6.28135 21.8995 6.32083 22.0631C6.36031 22.2268 6.45369 22.3724 6.58593 22.4765C6.71818 22.5806 6.88161 22.6372 7.04994 22.6372ZM24.5947 14.052C24.7759 14.0516 24.9509 13.9856 25.0873 13.8662C25.2236 13.7468 25.3122 13.5821 25.3364 13.4025C25.6042 11.4285 25.0784 9.55574 24.6599 8.77799C24.5612 8.61101 24.4017 8.48872 24.2149 8.43674C24.028 8.38476 23.8283 8.40712 23.6575 8.49913C23.4868 8.59115 23.3583 8.74568 23.2989 8.93035C23.2396 9.11501 23.254 9.31548 23.3392 9.48974C23.6039 9.98024 24.0764 11.5327 23.8499 13.2007C23.8355 13.3069 23.8439 13.415 23.8748 13.5177C23.9056 13.6203 23.958 13.7152 24.0286 13.7958C24.0992 13.8765 24.1862 13.9411 24.2839 13.9853C24.3815 14.0295 24.4875 14.0522 24.5947 14.052ZM8.37069 9.88424C8.54513 9.88414 8.71408 9.82319 8.84839 9.71187C8.9827 9.60056 9.07396 9.44588 9.10644 9.27449C9.31569 8.17199 9.19044 6.91349 8.95869 6.23924C8.92817 6.14426 8.879 6.05633 8.81407 5.98059C8.74914 5.90485 8.66976 5.84282 8.58056 5.79814C8.49136 5.75346 8.39415 5.72703 8.29461 5.72038C8.19507 5.71374 8.09521 5.72702 8.00086 5.75945C7.90652 5.79188 7.81959 5.8428 7.74517 5.90924C7.67075 5.97568 7.61034 6.0563 7.56746 6.14638C7.52459 6.23645 7.50011 6.33418 7.49547 6.43383C7.49083 6.53349 7.50612 6.63306 7.54044 6.72674C7.68069 7.13324 7.80144 8.10599 7.63269 8.99399C7.61203 9.10252 7.6156 9.21427 7.64315 9.32126C7.6707 9.42825 7.72155 9.52784 7.79206 9.61289C7.86257 9.69795 7.951 9.76637 8.05103 9.81328C8.15105 9.86019 8.26021 9.88442 8.37069 9.88424Z" fill="#D1AF94"/>
</g>
<defs>
<clipPath id="clip0_33_160">
<rect width="27" height="27" fill="white" transform="matrix(-1 0 0 1 27 0)"/>
</clipPath>
</defs>
</svg>
